<?xml version="1.0" encoding="UTF-8" standalone="no"?>
<!DOCTYPE svg PUBLIC "-//W3C//DTD SVG 1.1//EN"
 "http://www.w3.org/Graphics/SVG/1.1/DTD/svg11.dtd">
<!-- Generated by graphviz version 2.44.1 (20200629.0846)
 -->
<!-- Title: dependencies Pages: 1 -->
<svg width="2102pt" height="284pt"
 viewBox="0.00 0.00 2102.00 284.00" xmlns="http://www.w3.org/2000/svg" xmlns:xlink="http://www.w3.org/1999/xlink">
<g id="graph0" class="graph" transform="scale(1 1) rotate(0) translate(4 280)">
<title>dependencies</title>
<polygon fill="white" stroke="transparent" points="-4,4 -4,-280 2098,-280 2098,4 -4,4"/>
<text text-anchor="start" x="1026.01" y="-42.4" font-family="sans-serif" font-weight="bold" font-size="14.00">Legend</text>
<polygon fill="#ffffb3" stroke="transparent" points="813,-10 813,-30 833,-30 833,-10 813,-10"/>
<text text-anchor="start" x="836.63" y="-15.4" font-family="sans-serif" font-size="14.00"> &#160;Declarations</text>
<polygon fill="#8dd3c7" stroke="transparent" points="926,-10 926,-30 946,-30 946,-10 926,-10"/>
<text text-anchor="start" x="949.73" y="-15.4" font-family="sans-serif" font-size="14.00"> &#160;Module</text>
<polygon fill="#80b1d3" stroke="transparent" points="1012,-10 1012,-30 1032,-30 1032,-10 1012,-10"/>
<text text-anchor="start" x="1035.78" y="-15.4" font-family="sans-serif" font-size="14.00"> &#160;Bootstrap</text>
<polygon fill="#fdb462" stroke="transparent" points="1109,-10 1109,-30 1129,-30 1129,-10 1109,-10"/>
<text text-anchor="start" x="1132.67" y="-15.4" font-family="sans-serif" font-size="14.00"> &#160;Providers</text>
<polygon fill="#fb8072" stroke="transparent" points="1205,-10 1205,-30 1225,-30 1225,-10 1205,-10"/>
<text text-anchor="start" x="1228.73" y="-15.4" font-family="sans-serif" font-size="14.00"> &#160;Exports</text>
<g id="clust1" class="cluster">
<title>cluster_AppModule</title>
<polygon fill="none" stroke="black" stroke-dasharray="1,5" points="8,-70 8,-268 2086,-268 2086,-70 8,-70"/>
</g>
<g id="clust2" class="cluster">
<title>cluster_AppModule_declarations</title>
<polygon fill="none" stroke="black" points="533,-78 533,-130 2078,-130 2078,-78 533,-78"/>
</g>
<g id="clust16" class="cluster">
<title>cluster_AppModule_bootstrap</title>
<polygon fill="none" stroke="black" points="1021,-208 1021,-260 1145,-260 1145,-208 1021,-208"/>
</g>
<g id="clust17" class="cluster">
<title>cluster_AppModule_providers</title>
<polygon fill="none" stroke="black" points="16,-78 16,-130 525,-130 525,-78 16,-78"/>
</g>
<!-- AboutComponent -->
<g id="node1" class="node">
<title>AboutComponent</title>
<polygon fill="#ffffb3" stroke="black" points="2070.33,-122 1953.67,-122 1953.67,-86 2070.33,-86 2070.33,-122"/>
<text text-anchor="middle" x="2012" y="-99.8" font-family="Times,serif" font-size="14.00">AboutComponent</text>
</g>
<!-- AppModule -->
<g id="node12" class="node">
<title>AppModule</title>
<polygon fill="#8dd3c7" stroke="black" points="1124.66,-187 1121.66,-191 1100.66,-191 1097.66,-187 1041.34,-187 1041.34,-151 1124.66,-151 1124.66,-187"/>
<text text-anchor="middle" x="1083" y="-164.8" font-family="Times,serif" font-size="14.00">AppModule</text>
</g>
<!-- AboutComponent&#45;&gt;AppModule -->
<g id="edge1" class="edge">
<title>AboutComponent&#45;&gt;AppModule</title>
<path fill="none" stroke="black" d="M2012,-122.09C2012,-145.13 2012,-182 2012,-182 2012,-182 1134.72,-182 1134.72,-182"/>
<polygon fill="black" stroke="black" points="1134.72,-178.5 1124.72,-182 1134.72,-185.5 1134.72,-178.5"/>
</g>
<!-- AddCourseComponent -->
<g id="node2" class="node">
<title>AddCourseComponent</title>
<polygon fill="#ffffb3" stroke="black" points="1935.6,-122 1790.4,-122 1790.4,-86 1935.6,-86 1935.6,-122"/>
<text text-anchor="middle" x="1863" y="-99.8" font-family="Times,serif" font-size="14.00">AddCourseComponent</text>
</g>
<!-- AddCourseComponent&#45;&gt;AppModule -->
<g id="edge2" class="edge">
<title>AddCourseComponent&#45;&gt;AppModule</title>
<path fill="none" stroke="black" d="M1863,-122.04C1863,-143.66 1863,-177 1863,-177 1863,-177 1134.66,-177 1134.66,-177"/>
<polygon fill="black" stroke="black" points="1134.66,-173.5 1124.66,-177 1134.66,-180.5 1134.66,-173.5"/>
</g>
<!-- AppComponent -->
<g id="node3" class="node">
<title>AppComponent</title>
<polygon fill="#ffffb3" stroke="black" points="1772.94,-122 1667.06,-122 1667.06,-86 1772.94,-86 1772.94,-122"/>
<text text-anchor="middle" x="1720" y="-99.8" font-family="Times,serif" font-size="14.00">AppComponent</text>
</g>
<!-- AppComponent&#45;&gt;AppModule -->
<g id="edge3" class="edge">
<title>AppComponent&#45;&gt;AppModule</title>
<path fill="none" stroke="black" d="M1720,-122.22C1720,-142.37 1720,-172 1720,-172 1720,-172 1134.8,-172 1134.8,-172"/>
<polygon fill="black" stroke="black" points="1134.8,-168.5 1124.8,-172 1134.8,-175.5 1134.8,-168.5"/>
</g>
<!-- CourseHomeComponent -->
<g id="node4" class="node">
<title>CourseHomeComponent</title>
<polygon fill="#ffffb3" stroke="black" points="1649.7,-122 1494.3,-122 1494.3,-86 1649.7,-86 1649.7,-122"/>
<text text-anchor="middle" x="1572" y="-99.8" font-family="Times,serif" font-size="14.00">CourseHomeComponent</text>
</g>
<!-- CourseHomeComponent&#45;&gt;AppModule -->
<g id="edge4" class="edge">
<title>CourseHomeComponent&#45;&gt;AppModule</title>
<path fill="none" stroke="black" d="M1572,-122.22C1572,-140.83 1572,-167 1572,-167 1572,-167 1134.69,-167 1134.69,-167"/>
<polygon fill="black" stroke="black" points="1134.69,-163.5 1124.69,-167 1134.69,-170.5 1134.69,-163.5"/>
</g>
<!-- HomeComponent -->
<g id="node5" class="node">
<title>HomeComponent</title>
<polygon fill="#ffffb3" stroke="black" points="1476.55,-122 1361.45,-122 1361.45,-86 1476.55,-86 1476.55,-122"/>
<text text-anchor="middle" x="1419" y="-99.8" font-family="Times,serif" font-size="14.00">HomeComponent</text>
</g>
<!-- HomeComponent&#45;&gt;AppModule -->
<g id="edge5" class="edge">
<title>HomeComponent&#45;&gt;AppModule</title>
<path fill="none" stroke="black" d="M1419,-122.03C1419,-139.06 1419,-162 1419,-162 1419,-162 1134.88,-162 1134.88,-162"/>
<polygon fill="black" stroke="black" points="1134.88,-158.5 1124.88,-162 1134.88,-165.5 1134.88,-158.5"/>
</g>
<!-- LoginComponent -->
<g id="node6" class="node">
<title>LoginComponent</title>
<polygon fill="#ffffb3" stroke="black" points="1343.28,-122 1228.72,-122 1228.72,-86 1343.28,-86 1343.28,-122"/>
<text text-anchor="middle" x="1286" y="-99.8" font-family="Times,serif" font-size="14.00">LoginComponent</text>
</g>
<!-- LoginComponent&#45;&gt;AppModule -->
<g id="edge6" class="edge">
<title>LoginComponent&#45;&gt;AppModule</title>
<path fill="none" stroke="black" d="M1286,-122.24C1286,-137.57 1286,-157 1286,-157 1286,-157 1135.06,-157 1135.06,-157"/>
<polygon fill="black" stroke="black" points="1135.06,-153.5 1125.06,-157 1135.06,-160.5 1135.06,-153.5"/>
</g>
<!-- LogoutComponent -->
<g id="node7" class="node">
<title>LogoutComponent</title>
<polygon fill="#ffffb3" stroke="black" points="1210.78,-122 1089.22,-122 1089.22,-86 1210.78,-86 1210.78,-122"/>
<text text-anchor="middle" x="1150" y="-99.8" font-family="Times,serif" font-size="14.00">LogoutComponent</text>
</g>
<!-- LogoutComponent&#45;&gt;AppModule -->
<g id="edge7" class="edge">
<title>LogoutComponent&#45;&gt;AppModule</title>
<path fill="none" stroke="black" d="M1106.97,-122.11C1106.97,-122.11 1106.97,-140.99 1106.97,-140.99"/>
<polygon fill="black" stroke="black" points="1103.47,-140.99 1106.97,-150.99 1110.47,-140.99 1103.47,-140.99"/>
</g>
<!-- ReadComponent -->
<g id="node8" class="node">
<title>ReadComponent</title>
<polygon fill="#ffffb3" stroke="black" points="1071.1,-122 960.9,-122 960.9,-86 1071.1,-86 1071.1,-122"/>
<text text-anchor="middle" x="1016" y="-99.8" font-family="Times,serif" font-size="14.00">ReadComponent</text>
</g>
<!-- ReadComponent&#45;&gt;AppModule -->
<g id="edge8" class="edge">
<title>ReadComponent&#45;&gt;AppModule</title>
<path fill="none" stroke="black" d="M1056.11,-122.11C1056.11,-122.11 1056.11,-140.99 1056.11,-140.99"/>
<polygon fill="black" stroke="black" points="1052.61,-140.99 1056.11,-150.99 1059.61,-140.99 1052.61,-140.99"/>
</g>
<!-- RegisterComponent -->
<g id="node9" class="node">
<title>RegisterComponent</title>
<polygon fill="#ffffb3" stroke="black" points="942.98,-122 815.02,-122 815.02,-86 942.98,-86 942.98,-122"/>
<text text-anchor="middle" x="879" y="-99.8" font-family="Times,serif" font-size="14.00">RegisterComponent</text>
</g>
<!-- RegisterComponent&#45;&gt;AppModule -->
<g id="edge9" class="edge">
<title>RegisterComponent&#45;&gt;AppModule</title>
<path fill="none" stroke="black" d="M879,-122.24C879,-137.57 879,-157 879,-157 879,-157 1031.23,-157 1031.23,-157"/>
<polygon fill="black" stroke="black" points="1031.23,-160.5 1041.23,-157 1031.23,-153.5 1031.23,-160.5"/>
</g>
<!-- TopBarComponent -->
<g id="node10" class="node">
<title>TopBarComponent</title>
<polygon fill="#ffffb3" stroke="black" points="797.1,-122 672.9,-122 672.9,-86 797.1,-86 797.1,-122"/>
<text text-anchor="middle" x="735" y="-99.8" font-family="Times,serif" font-size="14.00">TopBarComponent</text>
</g>
<!-- TopBarComponent&#45;&gt;AppModule -->
<g id="edge10" class="edge">
<title>TopBarComponent&#45;&gt;AppModule</title>
<path fill="none" stroke="black" d="M735,-122.03C735,-139.06 735,-162 735,-162 735,-162 1031.02,-162 1031.02,-162"/>
<polygon fill="black" stroke="black" points="1031.02,-165.5 1041.02,-162 1031.02,-158.5 1031.02,-165.5"/>
</g>
<!-- UsersComponent -->
<g id="node11" class="node">
<title>UsersComponent</title>
<polygon fill="#ffffb3" stroke="black" points="654.7,-122 541.3,-122 541.3,-86 654.7,-86 654.7,-122"/>
<text text-anchor="middle" x="598" y="-99.8" font-family="Times,serif" font-size="14.00">UsersComponent</text>
</g>
<!-- UsersComponent&#45;&gt;AppModule -->
<g id="edge11" class="edge">
<title>UsersComponent&#45;&gt;AppModule</title>
<path fill="none" stroke="black" d="M598,-122.22C598,-140.83 598,-167 598,-167 598,-167 1031.23,-167 1031.23,-167"/>
<polygon fill="black" stroke="black" points="1031.23,-170.5 1041.23,-167 1031.23,-163.5 1031.23,-170.5"/>
</g>
<!-- AppComponent  -->
<g id="node13" class="node">
<title>AppComponent </title>
<polygon fill="#80b1d3" stroke="black" points="1137.44,-252 1028.56,-252 1028.56,-216 1137.44,-216 1137.44,-252"/>
<text text-anchor="middle" x="1083" y="-229.8" font-family="Times,serif" font-size="14.00">AppComponent </text>
</g>
<!-- AppModule&#45;&gt;AppComponent  -->
<g id="edge12" class="edge">
<title>AppModule&#45;&gt;AppComponent </title>
<path fill="none" stroke="black" stroke-dasharray="1,5" d="M1083,-187.11C1083,-187.11 1083,-205.99 1083,-205.99"/>
<polygon fill="black" stroke="black" points="1079.5,-205.99 1083,-215.99 1086.5,-205.99 1079.5,-205.99"/>
</g>
<!-- AuthInterceptor -->
<g id="node14" class="node">
<title>AuthInterceptor</title>
<ellipse fill="#fdb462" stroke="black" cx="444" cy="-104" rx="72.91" ry="18"/>
<text text-anchor="middle" x="444" y="-99.8" font-family="Times,serif" font-size="14.00">AuthInterceptor</text>
</g>
<!-- AuthInterceptor&#45;&gt;AppModule -->
<g id="edge13" class="edge">
<title>AuthInterceptor&#45;&gt;AppModule</title>
<path fill="none" stroke="black" d="M444,-122.22C444,-142.37 444,-172 444,-172 444,-172 1031.07,-172 1031.07,-172"/>
<polygon fill="black" stroke="black" points="1031.07,-175.5 1041.07,-172 1031.07,-168.5 1031.07,-175.5"/>
</g>
<!-- AuthenticationService -->
<g id="node15" class="node">
<title>AuthenticationService</title>
<ellipse fill="#fdb462" stroke="black" cx="256" cy="-104" rx="97.27" ry="18"/>
<text text-anchor="middle" x="256" y="-99.8" font-family="Times,serif" font-size="14.00">AuthenticationService</text>
</g>
<!-- AuthenticationService&#45;&gt;AppModule -->
<g id="edge14" class="edge">
<title>AuthenticationService&#45;&gt;AppModule</title>
<path fill="none" stroke="black" d="M256,-122.04C256,-143.66 256,-177 256,-177 256,-177 1031.14,-177 1031.14,-177"/>
<polygon fill="black" stroke="black" points="1031.14,-180.5 1041.14,-177 1031.14,-173.5 1031.14,-180.5"/>
</g>
<!-- UserService -->
<g id="node16" class="node">
<title>UserService</title>
<ellipse fill="#fdb462" stroke="black" cx="82" cy="-104" rx="58.44" ry="18"/>
<text text-anchor="middle" x="82" y="-99.8" font-family="Times,serif" font-size="14.00">UserService</text>
</g>
<!-- UserService&#45;&gt;AppModule -->
<g id="edge15" class="edge">
<title>UserService&#45;&gt;AppModule</title>
<path fill="none" stroke="black" d="M82,-122.09C82,-145.13 82,-182 82,-182 82,-182 1031.26,-182 1031.26,-182"/>
<polygon fill="black" stroke="black" points="1031.26,-185.5 1041.26,-182 1031.26,-178.5 1031.26,-185.5"/>
</g>
</g>
</svg>
